<svg width="20" height="20" viewBox="0 0 20 20" fill="none" xmlns="http://www.w3.org/2000/svg">
<path d="M11.5586 2C11.0563 2 10.5903 2.26133 10.3286 2.69033L6.33325 9.235V17.3333H14.0069C15.4716 17.3333 16.7813 16.4213 17.2889 15.0473L19.1699 10.403C19.3603 9.93333 19.3873 9.40667 19.2346 8.90867C18.9409 7.95133 18.0079 7.33333 17.0069 7.33333H12.9999V3.44133C12.9999 2.64533 12.3546 2 11.5586 2Z" fill="black"/>
<path d="M2.33333 9H5V17.3333H2.33333C1.597 17.3333 1 16.7363 1 16V10.3333C1 9.597 1.597 9 2.33333 9Z" fill="black"/>
</svg>
