<svg width="20" height="20" viewBox="0 0 20 20" fill="none" xmlns="http://www.w3.org/2000/svg">
<path d="M11.5586 18C11.0563 18 10.5903 17.7387 10.3286 17.3097L6.33325 10.765V2.66667H14.0069C15.4716 2.66667 16.7813 3.57867 17.2889 4.95267L19.1699 9.597C19.3603 10.0667 19.3873 10.5933 19.2346 11.0913C18.9409 12.0487 18.0079 12.6667 17.0069 12.6667H12.9999V16.5587C12.9999 17.3547 12.3546 18 11.5586 18Z" fill="black"/>
<path d="M2.33333 11H5V2.66667H2.33333C1.597 2.66667 1 3.26367 1 4V9.66667C1 10.403 1.597 11 2.33333 11Z" fill="black"/>
</svg>
