<svg width="20" height="20" viewBox="0 0 20 20" fill="none" xmlns="http://www.w3.org/2000/svg">
<path d="M9 1H11V6.66667H9V1Z" fill="#F25C5C"/>
<path d="M12.3334 2.66699V4.78299C14.6751 5.71233 16.3334 7.99366 16.3334 10.6667C16.3334 14.1643 13.4977 17 10.0001 17C6.50242 17 3.66675 14.1643 3.66675 10.6667C3.66675 7.99366 5.32508 5.71233 7.66675 4.78266V2.66699C4.20075 3.67633 1.66675 6.87466 1.66675 10.6667C1.66675 15.269 5.39775 19 10.0001 19C14.6024 19 18.3334 15.269 18.3334 10.6667C18.3334 6.87466 15.7994 3.67633 12.3334 2.66699Z" fill="#F25C5C"/>
</svg>
